<?xml version="1.0" standalone="no"?>
<!DOCTYPE svg PUBLIC "-//W3C//DTD SVG 20010904//EN"
 "http://www.w3.org/TR/2001/REC-SVG-20010904/DTD/svg10.dtd">
<svg version="1.0" xmlns="http://www.w3.org/2000/svg"
 width="300.000000pt" height="300.000000pt" viewBox="0 0 300.000000 300.000000"
 preserveAspectRatio="xMidYMid meet">
<metadata>
Created by potrace 1.14, written by Peter Selinger 2001-2017
</metadata>
<g transform="translate(0.000000,300.000000) scale(0.100000,-0.100000)"
fill="#000000" stroke="none">
<path d="M1421 2869 c-158 -79 -264 -264 -248 -435 11 -114 56 -180 210 -302
108 -87 144 -124 161 -167 14 -35 18 -86 11 -131 l-6 -44 -193 0 -194 0 5 43
c8 77 -19 116 -166 242 -88 76 -105 108 -98 189 3 33 8 69 12 79 12 29 -19 20
-73 -22 -99 -79 -138 -172 -112 -266 14 -51 40 -80 135 -151 68 -50 105 -87
105 -106 0 -5 -171 -8 -380 -8 -456 0 -421 11 -423 -135 -3 -171 79 -496 196
-775 37 -90 113 -239 133 -261 8 -8 14 -19 14 -23 0 -16 131 -175 197 -240 37
-37 88 -79 113 -94 l45 -27 415 0 415 0 45 29 c47 30 153 132 211 203 l35 42
57 -19 c349 -115 700 65 777 400 64 273 -100 560 -370 649 l-65 22 3 72 c5 89
-10 142 -41 151 -12 3 -149 6 -304 6 -156 0 -283 2 -283 5 0 3 6 16 14 28 30
47 58 152 58 220 0 107 -35 166 -186 315 -135 132 -176 180 -196 230 -20 50
-13 123 20 218 16 48 30 89 30 91 0 8 -21 1 -79 -28z m996 -1558 c61 -28 129
-95 160 -160 24 -48 28 -68 28 -141 -1 -73 -4 -93 -28 -140 -64 -126 -176
-194 -317 -191 -77 1 -140 15 -140 30 0 5 17 46 39 92 61 134 148 380 177 502
7 32 23 34 81 8z"/>
</g>
</svg>
